Coordinates
version=1
nRows=11
nColumns=40
inDegrees=yes

Units are S.I. units (second, meters, Newtons, ...)
Angles are in degrees.

endheader
time	pelvis_tilt	pelvis_list	pelvis_rotation	pelvis_tx	pelvis_ty	pelvis_tz	hip_flexion_r	hip_adduction_r	hip_rotation_r	knee_angle_r	knee_angle_r_beta	ankle_angle_r	subtalar_angle_r	mtp_angle_r	hip_flexion_l	hip_adduction_l	hip_rotation_l	knee_angle_l	knee_angle_l_beta	ankle_angle_l	subtalar_angle_l	mtp_angle_l	lumbar_extension	lumbar_bending	lumbar_rotation	arm_flex_r	arm_add_r	arm_rot_r	elbow_flex_r	pro_sup_r	wrist_flex_r	wrist_dev_r	arm_flex_l	arm_add_l	arm_rot_l	elbow_flex_l	pro_sup_l	wrist_flex_l	wrist_dev_l
     48.43500000	     -4.48047915	     -5.89263902	      6.62142887	      1.03496691	      0.92299470	      0.47190899	     -0.78287528	      4.63594389	    -18.53821064	      7.08519644	      7.08519644	     14.12429148	      6.94183072	     -5.32488535	     30.64240018	     -9.89208720	     -0.75977189	     24.05323257	     24.05323257	      4.76410773	    -10.55743254	      7.76244821	     -8.57707505	      6.88024747	      4.66672258	     40.02025956	    -19.83401565	    -15.01705006	     87.26522022	     44.87356962	      0.00000000	      0.00000000	     -9.27477748	     -8.78125923	     -0.33595089	     25.87592203	     44.97184369	      0.00000000	      0.00000000
     48.44821429	     -4.46580991	     -5.93182534	      6.38429313	      1.03592906	      0.92224013	      0.46981304	     -1.17024940	      4.52365415	    -18.29627206	      7.24759386	      7.24759386	     14.40528852	      6.98132936	     -5.38467524	     29.95165678	     -9.82642835	     -0.82663924	     24.44061775	     24.44061775	      4.86644238	    -10.89311101	      7.65620463	     -8.46796837	      6.88351485	      4.71670634	     39.50817357	    -19.53870034	    -14.96756449	     86.94827682	     44.88142205	      0.00000000	      0.00000000	     -8.95733766	     -8.90857546	     -0.33498925	     26.03576700	     44.97953301	      0.00000000	      0.00000000
     48.46142857	     -4.50816146	     -5.90364946	      6.16807894	      1.03672529	      0.92164302	      0.46747948	     -1.31852566	      4.25976524	    -18.00645280	      7.75991859	      7.75991859	     14.85390050	      6.78471835	     -5.07661374	     29.26963798	     -9.61640395	     -0.72603147	     24.56331875	     24.56331875	      4.76476051	    -11.54143575	      7.18869379	     -8.27744353	      6.76915505	      4.81303825	     39.10185713	    -19.24375279	    -15.52000496	     85.56182941	     44.95495375	      0.00000000	      0.00000000	     -8.58890483	     -9.09719294	     -0.24411786	     26.49982523	     44.98994639	      0.00000000	      0.00000000
     48.47464286	     -4.47961772	     -5.88666681	      6.02638264	      1.03743457	      0.92133820	      0.46492775	     -1.63021977	      4.03048352	    -17.84922374	      8.05496873	      8.05496873	     15.03945232	      6.71945769	     -5.09437531	     28.69306227	     -9.46479583	     -0.74570837	     24.82639919	     24.82639919	      5.02776274	    -11.73350704	      6.99503665	     -8.26734525	      6.75792519	      4.68023659	     38.35929804	    -18.86654741	    -15.44445831	     85.11294784	     44.96535326	      0.00000000	      0.00000000	     -8.08549269	     -9.25237934	     -0.23967843	     26.70676696	     45.00092800	      0.00000000	      0.00000000
     48.48785714	     -4.55245934	     -5.76819973	      5.86836461	      1.03800597	      0.92118424	      0.46221151	     -1.56371505	      3.58137134	    -17.58157500	      8.90163246	      8.90163246	     15.42134769	      6.38678982	     -4.94385618	     28.18106932	     -9.18941223	     -0.76123921	     24.88099659	     24.88099659	      5.22352616	    -12.00117842	      6.61416716	     -8.09700995	      6.52597936	      4.68439309	     37.72841943	    -18.70069673	    -15.78635286	     83.50218714	     45.03325865	      0.00000000	      0.00000000	     -7.36603337	     -9.41642566	     -0.17494313	     27.02920017	     45.01608478	      0.00000000	      0.00000000
     48.50107143	     -4.58292207	     -5.69565337	      5.79351072	      1.03846023	      0.92134214	      0.45919457	     -1.59298762	      3.19331030	    -17.43169213	      9.60827064	      9.60827064	     15.71552942	      6.15921524	     -4.52837224	     27.77789447	     -8.93486233	     -0.70244649	     25.03037701	     25.03037701	      5.44174216	    -12.28279623	      6.17298860	     -7.99857928	      6.43219524	      4.36974574	     37.17710914	    -18.17303261	    -16.02731711	     81.59472852	     45.11141573	      0.00000000	      0.00000000	     -6.62924849	     -9.57323668	     -0.01230920	     27.15037487	     45.02786699	      0.00000000	      0.00000000
     48.51428571	     -4.57132650	     -5.55043882	      5.73734431	      1.03890506	      0.92184525	      0.45592579	     -1.68949477	      2.71732223	    -17.33919928	     10.26173278	     10.26173278	     15.78943699	      5.94219344	     -4.48276082	     27.32566939	     -8.62853718	     -0.78597920	     25.11530677	     25.11530677	      5.80861580	    -12.34274838	      5.98283885	     -7.99574676	      6.28225621	      4.22338359	     36.17706612	    -18.01485577	    -16.02454459	     80.38096321	     45.14990530	      0.00000000	      0.00000000	     -5.72760982	     -9.72438215	      0.02323963	     27.43215615	     45.04572599	      0.00000000	      0.00000000
     48.52750000	     -4.62027079	     -5.40424827	      5.68467291	      1.03914282	      0.92245502	      0.45248053	     -1.57021804	      2.17071953	    -17.25206916	     11.18231574	     11.18231574	     15.86329031	      5.68299232	     -4.41624965	     26.97629481	     -8.30766173	     -0.87331058	     25.18198499	     25.18198499	      6.17677615	    -12.38649151	      5.85342463	     -7.94322015	      6.14040478	      4.20594856	     35.21580046	    -17.95769182	    -16.13421506	     78.36184597	     45.21951581	      0.00000000	      0.00000000	     -4.57584912	     -9.83285196	      0.12609769	     27.64938323	     45.06088034	      0.00000000	      0.00000000
     48.54071429	     -4.61849710	     -5.25709637	      5.63263909	      1.03943216	      0.92329873	      0.44887835	     -1.53032404	      1.62329341	    -17.19060205	     12.04933875	     12.04933875	     15.86263778	      5.47885153	     -4.35666709	     26.56649910	     -7.99345620	     -1.01109867	     25.22517741	     25.22517741	      6.57176879	    -12.38627919	      5.78878336	     -7.92838272	      6.01324858	      4.09340868	     34.18231662	    -17.81021815	    -16.16625576	     76.25655208	     45.28819736	      0.00000000	      0.00000000	     -3.41295886	     -9.95583660	      0.25652940	     27.79564858	     45.07125356	      0.00000000	      0.00000000
     48.55392857	     -4.54231650	     -5.27703775	      5.65705186	      1.03980113	      0.92431123	      0.44513551	     -1.73110612	      1.32934219	    -17.18656852	     12.55113846	     12.55113846	     15.64986175	      5.36674710	     -4.33412745	     26.13935281	     -7.82374633	     -1.02915388	     25.31137450	     25.31137450	      6.93872205	    -12.42330787	      5.67027484	     -8.03588454	      6.17652419	      3.71494572	     32.96693172	    -17.31359831	    -15.99776073	     75.35513348	     45.30688183	      0.00000000	      0.00000000	     -2.31763760	    -10.02613608	      0.29565336	     28.13618795	     45.08558807	      0.00000000	      0.00000000
     48.56714286	     -4.63198524	     -4.97699062	      5.42638668	      1.03997239	      0.92521733	      0.44142036	     -1.24119790	      0.45567097	    -17.00992294	     14.09853674	     14.09853674	     15.71786189	      5.04513272	     -4.54734317	     25.63926729	     -7.40969497	     -1.50776428	     25.11829765	     25.11829765	      7.31184082	    -12.21904196	      5.72363517	     -7.88133903	      5.85243446	      4.18867793	     31.88689096	    -17.80299330	    -16.07003554	     71.79291589	     45.42527651	      0.00000000	      0.00000000	     -0.79365637	    -10.10947068	      0.50812526	     28.32174782	     45.08898932	      0.00000000	      0.00000000
